<?xml version="1.0" encoding="UTF-8"?>
<!DOCTYPE svg PUBLIC "-//W3C//DTD SVG 1.1//EN" "http://www.w3.org/Graphics/SVG/1.1/DTD/svg11.dtd">
<svg xmlns="http://www.w3.org/2000/svg" version="1.1" width="1515px" height="809px" style="shape-rendering:geometricPrecision; text-rendering:geometricPrecision; image-rendering:optimizeQuality; fill-rule:evenodd; clip-rule:evenodd" xmlns:xlink="http://www.w3.org/1999/xlink">
<g><path style="opacity:1" fill="#ec1c23" d="M -0.5,-0.5 C 504.5,-0.5 1009.5,-0.5 1514.5,-0.5C 1514.5,88.1667 1514.5,176.833 1514.5,265.5C 1009.5,265.5 504.5,265.5 -0.5,265.5C -0.5,176.833 -0.5,88.1667 -0.5,-0.5 Z"/></g>
<g><path style="opacity:1" fill="#fefffe" d="M -0.5,265.5 C 504.5,265.5 1009.5,265.5 1514.5,265.5C 1514.5,357.167 1514.5,448.833 1514.5,540.5C 1009.5,540.5 504.5,540.5 -0.5,540.5C -0.5,448.833 -0.5,357.167 -0.5,265.5 Z"/></g>
<g><path style="opacity:1" fill="#22b14b" d="M -0.5,540.5 C 504.5,540.5 1009.5,540.5 1514.5,540.5C 1514.5,629.833 1514.5,719.167 1514.5,808.5C 1009.5,808.5 504.5,808.5 -0.5,808.5C -0.5,719.167 -0.5,629.833 -0.5,540.5 Z"/></g>
</svg>
